<svg width="153" height="112" viewBox="0 0 153 112" fill="none" xmlns="http://www.w3.org/2000/svg">
<path d="M36.7588 1.008L23.0128 27.804V43H14.1968V27.804L0.392828 1.008H9.90483L18.5468 19.858L27.2468 1.008H36.7588ZM73.109 22.874C73.109 27.0887 72.355 30.762 70.847 33.894C69.339 37.026 67.2316 39.4233 64.525 41.086C61.857 42.7487 58.7636 43.58 55.245 43.58C51.765 43.58 48.6523 42.7487 45.907 41.086C43.2003 39.4233 41.093 37.026 39.585 33.894C38.077 30.762 37.323 27.0887 37.323 22.874V21.134C37.323 16.9193 38.077 13.2653 39.585 10.172C41.093 7.04 43.2003 4.64266 45.907 2.98C48.6136 1.27866 51.707 0.427998 55.187 0.427998C58.667 0.427998 61.7603 1.27866 64.467 2.98C67.2123 4.64266 69.339 7.04 70.847 10.172C72.355 13.2653 73.109 16.9193 73.109 21.134V22.874ZM64.293 21.076C64.293 16.7067 63.5003 13.3813 61.915 11.1C60.3296 8.78 58.087 7.62 55.187 7.62C52.287 7.62 50.0443 8.78 48.459 11.1C46.9123 13.3813 46.139 16.7067 46.139 21.076V22.874C46.139 27.2433 46.9316 30.6073 48.517 32.966C50.1023 35.286 52.345 36.446 55.245 36.446C58.145 36.446 60.3683 35.286 61.915 32.966C63.5003 30.646 64.293 27.282 64.293 22.874V21.076ZM87.0593 15.45V43H78.3593V1.008H87.0593L103.937 28.616V1.008H112.579V43H103.821L87.0593 15.45ZM152.491 37.664C151.176 39.2107 149.185 40.5833 146.517 41.782C143.849 42.9807 140.465 43.58 136.367 43.58C132.732 43.58 129.542 42.7873 126.797 41.202C124.051 39.6167 121.925 37.2967 120.417 34.242C118.909 31.1873 118.155 27.514 118.155 23.222V20.786C118.155 16.5327 118.87 12.8787 120.301 9.824C121.77 6.76933 123.819 4.44933 126.449 2.864C129.078 1.24 132.171 0.427998 135.729 0.427998C140.949 0.427998 144.912 1.66533 147.619 4.14C150.325 6.61467 151.93 10.0173 152.433 14.348H143.907C143.559 12.1053 142.766 10.404 141.529 9.244C140.291 8.04533 138.435 7.446 135.961 7.446C133.061 7.446 130.837 8.58666 129.291 10.868C127.744 13.1107 126.971 16.3973 126.971 20.728V23.222C126.971 27.5913 127.802 30.9167 129.465 33.198C131.166 35.4407 133.621 36.562 136.831 36.562C140.001 36.562 142.302 35.8853 143.733 34.532V27.282H135.903V20.902H152.491V37.664ZM52.7075 98.124C52.7075 100.831 52.0888 103.209 50.8515 105.258C49.6528 107.269 47.9708 108.835 45.8055 109.956C43.6788 111.039 41.2815 111.58 38.6135 111.58C34.3215 111.58 30.8801 110.497 28.2895 108.332C25.7375 106.128 24.4615 102.899 24.4615 98.646H33.2195C33.2195 100.734 33.6835 102.242 34.6115 103.17C35.5395 104.098 36.8735 104.562 38.6135 104.562C40.2761 104.562 41.5908 104.001 42.5575 102.88C43.5241 101.759 44.0075 100.173 44.0075 98.124V69.008H52.7075V98.124ZM89.7541 96.674C89.7541 99.8447 89.0581 102.551 87.6661 104.794C86.3127 107.037 84.4181 108.738 81.9821 109.898C79.5847 111.019 76.8201 111.58 73.6881 111.58C70.5174 111.58 67.7141 111.019 65.2781 109.898C62.8421 108.738 60.9281 107.037 59.5361 104.794C58.1827 102.551 57.5061 99.8447 57.5061 96.674V69.008H66.2641V96.674C66.2641 101.933 68.7387 104.562 73.6881 104.562C78.5601 104.562 80.9961 101.933 80.9961 96.674V69.008H89.7541V96.674ZM104.561 83.45V111H95.8613V69.008H104.561L121.439 96.616V69.008H130.081V111H121.323L104.561 83.45Z" fill="url(#paint0_linear_16_4)"/>
<defs>
<linearGradient id="paint0_linear_16_4" x1="-55" y1="56" x2="211" y2="56" gradientUnits="userSpaceOnUse">
<stop stop-color="#5E8CFF"/>
<stop offset="1" stop-color="#5E8CFF" stop-opacity="0.6"/>
</linearGradient>
</defs>
</svg>
