<svg width="1200" height="630" viewBox="0 0 1200 630" fill="none" xmlns="http://www.w3.org/2000/svg">
<rect width="1200" height="630" fill="white"/>
<path d="M375.824 268.968L345.104 327.208V361H328.08V327.208L297.36 268.968H315.92L336.656 311.848L357.264 268.968H375.824ZM454.926 317.224C454.926 326.44 453.305 334.461 450.062 341.288C446.905 348.029 442.425 353.235 436.622 356.904C430.819 360.488 424.121 362.28 416.526 362.28C408.931 362.28 402.19 360.488 396.302 356.904C390.499 353.235 385.977 348.029 382.734 341.288C379.491 334.461 377.87 326.44 377.87 317.224V312.744C377.87 303.528 379.491 295.549 382.734 288.808C385.977 281.981 390.499 276.776 396.302 273.192C402.105 269.523 408.803 267.688 416.398 267.688C423.993 267.688 430.691 269.523 436.494 273.192C442.297 276.776 446.819 281.981 450.062 288.808C453.305 295.549 454.926 303.528 454.926 312.744V317.224ZM437.902 312.616C437.902 302.632 436.025 294.995 432.27 289.704C428.515 284.328 423.225 281.64 416.398 281.64C409.657 281.64 404.366 284.328 400.526 289.704C396.771 294.995 394.894 302.632 394.894 312.616V317.224C394.894 327.208 396.771 334.931 400.526 340.392C404.366 345.768 409.699 348.456 416.526 348.456C423.353 348.456 428.601 345.768 432.27 340.392C436.025 335.016 437.902 327.293 437.902 317.224V312.616ZM484.832 297V361H467.936V268.968H484.832L524.896 332.968V268.968H541.664V361H524.768L484.832 297ZM629.11 349.224C626.379 352.637 622.198 355.667 616.566 358.312C611.019 360.957 603.723 362.28 594.678 362.28C586.827 362.28 579.915 360.531 573.942 357.032C568.054 353.533 563.446 348.456 560.118 341.8C556.875 335.144 555.254 327.208 555.254 317.992V311.976C555.254 302.675 556.79 294.696 559.862 288.04C562.934 281.384 567.329 276.349 573.046 272.936C578.763 269.437 585.547 267.688 593.398 267.688C604.406 267.688 612.811 270.333 618.614 275.624C624.502 280.915 628.001 288.168 629.11 297.384H612.598C610.806 286.547 604.491 281.128 593.654 281.128C586.657 281.128 581.323 283.773 577.654 289.064C574.07 294.355 572.278 301.949 572.278 311.848V317.992C572.278 327.891 574.283 335.485 578.294 340.776C582.305 346.067 588.022 348.712 595.446 348.712C600.054 348.712 603.595 348.243 606.07 347.304C608.63 346.28 610.721 345 612.342 343.464V326.056H593.782V313.384H629.11V349.224ZM701.027 333.096C701.027 339.069 699.704 344.275 697.059 348.712C694.499 353.064 690.915 356.435 686.307 358.824C681.699 361.128 676.494 362.28 670.691 362.28C661.475 362.28 654.094 359.933 648.547 355.24C643.086 350.547 640.355 343.592 640.355 334.376H657.251C657.251 343.933 661.731 348.712 670.691 348.712C674.787 348.712 678.072 347.347 680.547 344.616C683.022 341.885 684.259 338.045 684.259 333.096V268.968H701.027V333.096ZM782.035 330.152C782.035 336.979 780.542 342.824 777.555 347.688C774.568 352.467 770.43 356.093 765.139 358.568C759.934 361.043 754.003 362.28 747.347 362.28C740.52 362.28 734.504 361.085 729.299 358.696C724.094 356.221 719.998 352.552 717.011 347.688C714.11 342.824 712.659 336.979 712.659 330.152V268.968H729.555V330.152C729.555 336.381 731.091 341.032 734.163 344.104C737.32 347.176 741.715 348.712 747.347 348.712C752.979 348.712 757.331 347.176 760.403 344.104C763.56 341.032 765.139 336.381 765.139 330.152V268.968H782.035V330.152ZM813.457 297V361H796.561V268.968H813.457L853.521 332.968V268.968H870.289V361H853.393L813.457 297Z" fill="url(#paint0_linear_16_3)"/>
<defs>
<linearGradient id="paint0_linear_16_3" x1="298" y1="315" x2="903" y2="315" gradientUnits="userSpaceOnUse">
<stop stop-color="#5E8CFF"/>
<stop offset="1" stop-color="#5E8CFF" stop-opacity="0.6"/>
</linearGradient>
</defs>
</svg>
